<svg id="Layer_1" enable-background="new 0 0 512.001 512.001" height="512" viewBox="0 0 512.001 512.001" width="512" xmlns="http://www.w3.org/2000/svg"><g><path d="m317.424 311.693c2.145-40.85 10.271-69.745 13.025-78.539 22.294-11.03 36.758-26.39 42.973-45.717 10.674-33.198-7.244-65.464-8.012-66.821-1.893-3.346-6.008-4.716-9.532-3.179-.496.217-12.288 5.436-24.286 16.227-3.08 2.77-3.331 7.512-.561 10.592 2.769 3.079 7.511 3.331 10.592.561 5.013-4.509 10.018-7.891 13.799-10.158 4.01 9.891 9.828 29.325 3.686 48.291-4.589 14.171-15.148 25.841-31.43 34.762-8.274-18.253-9.265-35.054-2.931-50.023 1.614-3.814-.17-8.216-3.984-9.83-3.815-1.612-8.215.17-9.83 3.984-8.594 20.308-6.817 42.7 5.263 66.598-21.536 76.085-23.592 173.686 25.878 279.302 1.29 2.688 3.972 4.257 6.767 4.257 1.088 0 2.193-.238 3.24-.74 3.734-1.792 5.309-6.272 3.517-10.007-35.854-74.711-40.549-144.321-38.174-189.56z"/><path d="m365.929 376.03c.081-4.142-3.21-7.564-7.352-7.645-4.152-.074-7.564 3.21-7.646 7.352-.815 41.594 7.379 85.797 24.354 131.379 1.441 3.92 5.866 5.849 9.646 4.411 3.882-1.445 5.857-5.764 4.411-9.645-16.313-43.809-24.191-86.151-23.413-125.852z"/><path d="m403.689 224.106c-1.893-3.345-6.009-4.718-9.532-3.179-1.213.531-29.831 13.315-39.505 41.316-5.578 16.145-3.703 33.73 5.542 52.307-1.559 4.628-4.289 13.907-6.389 27.343-.64 4.092 2.159 7.929 6.252 8.568 4.002.654 7.947-2.138 8.568-6.252 1.937-12.393 4.432-20.824 5.754-24.767 47.619-22.803 43.555-69.426 29.31-95.336zm-7.535 52.187c-3.612 11.138-11.809 20.39-24.405 27.572-5.746-13.271-6.742-25.564-2.953-36.622 4.985-14.549 17.232-24.161 24.871-28.964 3.217 8.41 7.224 23.409 2.487 38.014z"/><path d="m260.139 272.222c-3.525 2.175-4.62 6.796-2.445 10.321 5.872 9.517 8.726 23.17 8.726 41.739v25.54c-4.03 1.814-9.117 3.197-16.663 3.197-12.876 0-19.016-4.046-26.124-8.731-2.706-1.783-5.545-3.643-8.781-5.327-14.364-59.282-17.335-119.735-17.943-140.571 11.667.249 22.478 1.08 30.471 1.865-4.486 7.306-8.739 18.132-8.739 32.925 0 16.504 7.787 24.121 16.201 29.894 3.416 2.345 8.084 1.474 10.427-1.941 2.344-3.415 1.475-8.084-1.941-10.427-6.563-4.504-9.688-8.275-9.688-17.526 0-22.656 12.377-32.342 12.84-32.696 2.464-1.794 3.597-4.9 2.868-7.858-.729-2.959-3.177-5.183-6.192-5.625-.94-.138-21.551-3.124-46.307-3.617.191-10.258.223-19.019.187-25.983 5.565 5.876 13.054 10.683 22.436 14.351 3.631 1.445 7.927-.227 9.568-3.902 6.354-14.091 7.658-26.987 3.924-38.417 12.965 4.187 25.032 2.225 38.521-3.5 3.667-1.6 5.432-5.796 4.012-9.536-5.49-14.46-13.709-24.502-24.453-29.942 18.203-9.2 24.679-29.272 24.954-30.147 1.077-3.436-.439-7.151-3.612-8.853-.81-.435-19.521-10.271-38.985-4.108 6.377-19.374-3.269-38.16-3.695-38.973-1.668-3.183-5.359-4.735-8.802-3.702-.881.265-21.083 6.521-30.485 24.632-9.204-18.213-29.336-24.689-30.214-24.963-3.43-1.072-7.139.44-8.842 3.605-.435.809-10.286 19.488-4.121 38.931-19.399-6.375-38.214 3.256-39.029 3.682-3.191 1.667-4.747 5.366-3.708 8.812.265.878 6.521 21.02 24.623 30.418-10.803 5.322-19.131 15.274-24.78 29.673-1.461 3.724.258 7.939 3.907 9.58 13.485 5.89 25.465 7.956 38.479 3.924-3.857 11.387-2.694 24.295 3.504 38.453 1.601 3.693 5.88 5.412 9.525 4.006 9.244-3.499 16.684-8.108 22.278-13.773.035 6.893.004 15.581-.187 25.762-24.099.577-43.919 3.45-44.841 3.585-3.015.443-5.494 2.643-6.223 5.602-.729 2.958.373 6.041 2.836 7.835.527.401 12.903 10.087 12.903 32.743 0 11.443-5.036 14.642-14.177 20.45-14.181 9.009-33.602 21.348-33.602 70.652v65.103c.344 9.931 14.659 9.923 15 0v-23.183c19.762 5.011 37.53-.545 49.381-9.39 1.186-.782 2.346-1.543 3.513-2.273-5.297 31.983-12.377 65.029-21.823 97.23-1.166 3.975 1.111 8.142 5.085 9.308 3.867 1.167 8.154-1.075 9.308-5.085 10.465-35.674 18.071-72.347 23.588-107.521 5.874-.844 14.467-.293 19.244 1.371 4.917 18.89 11.022 37.605 18.611 54.952 1.662 3.834 6.174 5.513 9.877 3.865 3.795-1.66 5.525-6.082 3.865-9.877-5.361-12.253-9.953-25.317-13.897-38.697 10.936 7.465 30.535 10.383 45.913 5.686v127.97c-12.137 1.12-40.056 3.258-76.334 3.258s-64.196-2.138-76.334-3.258v-70.399c-.344-9.931-14.659-9.923-15 0v77.181c0 3.804 2.847 7.005 6.625 7.449 1.4.165 34.853 4.027 84.709 4.027s83.309-3.862 84.709-4.027c3.778-.444 6.625-3.645 6.625-7.449v-176.24c0-21.432-3.585-37.662-10.96-49.615-2.17-3.525-6.791-4.621-10.316-2.445zm-90.651 64.143c-5.877 2.185-10.398 5.148-14.608 7.923-7.107 4.685-13.246 8.731-26.121 8.731-6.725 0-11.405-1.101-15.006-2.506v-26.232c0-41.063 13.546-49.669 26.646-57.991 9.905-6.293 21.133-13.426 21.133-33.111 0-14.793-4.253-25.619-8.739-32.925 7.584-.745 17.706-1.532 28.689-1.823-1.112 35.846-4.182 84.864-11.994 137.934zm48.579-181.742c-8.084-4.371-13.439-9.99-15.96-16.764-2.99-8.038-1.579-16.445.103-22.03 5.129 2.824 12.043 7.86 15.533 15.715 2.928 6.591 3.033 14.331.324 23.079zm40.307-39.815c-8.809 2.612-16.573 2.418-23.155-.594-7.802-3.571-12.759-10.504-15.527-15.64 5.628-1.622 14.079-2.937 22.105.151 6.74 2.593 12.296 7.989 16.577 16.083zm-21.688-56.734c8.064-3 16.5-1.592 22.104.089-2.827 5.111-7.858 11.986-15.697 15.471-6.614 2.939-14.381 3.049-23.16.341 4.371-8.047 9.985-13.382 16.753-15.901zm-33.53-24.681c3.577-7.818 10.549-12.78 15.704-15.546 4.588 15.144.46 30.2-16.28 38.619-2.613-8.777-2.424-16.515.576-23.073zm-41.096-15.849c5.107 2.818 11.998 7.832 15.493 15.613 2.97 6.613 3.089 14.384.367 23.175-8.084-4.371-13.439-9.99-15.96-16.764-2.99-8.034-1.581-16.439.1-22.024zm-40.369 39.872c5.629-1.622 14.08-2.936 22.105.151 6.74 2.593 12.296 7.989 16.578 16.083-8.81 2.612-16.575 2.417-23.156-.594-7.801-3.57-12.758-10.504-15.527-15.64zm22.958 56.304c-6.614 2.939-14.381 3.049-23.16.341 4.37-8.047 9.984-13.382 16.752-15.901 8.064-3.002 16.5-1.593 22.104.089-2.825 5.11-7.856 11.986-15.696 15.471zm32.851 24.004c-2.595 6.747-8.011 12.307-16.143 16.589-2.613-8.777-2.424-16.516.577-23.074 3.577-7.818 10.549-12.779 15.704-15.545 1.623 5.609 2.94 14.029-.138 22.03zm-1.184-51.59c0-7.605 6.165-13.77 13.77-13.77 18.266.725 18.261 26.818 0 27.541-7.605-.001-13.77-6.166-13.77-13.771zm12.938 246.948c-1.453 0-2.828.056-4.169.135 2.028-14.284 3.721-28.251 5.132-41.728 2.081 13.616 4.678 27.846 7.908 42.169-2.7-.369-5.64-.576-8.871-.576z"/></g></svg>