<svg id="Capa_1" enable-background="new 0 0 516.03 516.03" height="512" viewBox="0 0 516.03 516.03" width="512" xmlns="http://www.w3.org/2000/svg"><g><path d="m212.153 69.86c-3.905 3.905-3.905 10.237 0 14.143 1.953 1.953 4.512 2.929 7.071 2.929s5.119-.976 7.071-2.929l.057-.057c3.905-3.905 3.876-10.208-.029-14.114s-10.264-3.877-14.17.028z"/><path d="m69.808 212.209c-3.905 3.905-3.905 10.237 0 14.143 1.953 1.953 4.512 2.929 7.071 2.929s5.119-.976 7.071-2.929l.057-.057c3.905-3.905 3.876-10.208-.029-14.114s-10.265-3.877-14.17.028z"/><path d="m166.054 166.202c-3.872 3.938-3.817 10.27.121 14.142 1.947 1.914 4.479 2.869 7.01 2.869 2.587 0 5.174-.999 7.132-2.99l.028-.029c3.872-3.938 3.803-10.255-.135-14.127-3.939-3.873-10.284-3.804-14.156.135z"/><path d="m515.868 407.249c-1.372-10.832-11.186-16.629-14.41-18.534l-59.613-35.228c.477-2.237.728-4.54.726-6.884-.007-8.682-3.38-16.822-9.476-22.898-4.805-4.82-10.878-7.928-17.483-9.037 1.6-32.478-4.607-71.396-18.173-113.435-14.464-44.822-36.776-90.694-62.823-129.165-9.017-13.325-18.551-20.737-29.146-22.658-5.892-1.068-11.804-.351-17.661 2.127-3.013-2.912-6.425-5.377-10.138-7.288.379-11.729-4.07-23.335-12.482-31.718-8.081-8.081-18.82-12.531-30.243-12.531-.007 0-.017 0-.024 0-10.513.006-20.442 3.783-28.238 10.684-15.039-4.841-31.246-.98-42.938 10.71-6.334 6.333-10.348 13.995-11.947 22.075-6.452-3.775-13.813-5.798-21.489-5.802-.008 0-.016 0-.024 0-10.518 0-20.459 3.774-28.276 10.682-15.031-4.822-31.232-.95-42.918 10.737-11.688 11.687-15.559 27.887-10.738 42.921-6.914 7.824-10.687 17.773-10.681 28.301.004 7.678 2.028 15.04 5.802 21.49-8.079 1.599-15.74 5.612-22.073 11.945-11.693 11.693-15.554 27.9-10.711 42.941-6.903 7.799-10.678 17.726-10.684 28.237-.007 11.432 4.444 22.181 12.519 30.257 8.393 8.421 20.007 12.874 31.729 12.494 1.912 3.713 4.377 7.126 7.289 10.139-2.476 5.854-3.195 11.763-2.13 17.651 1.917 10.598 9.326 20.142 22.667 29.189 19.518 13.186 40.673 25.329 62.878 36.093 1.405.681 2.891 1.004 4.354 1.004 3.712 0 7.278-2.076 9.006-5.641 2.409-4.97.333-10.951-4.637-13.36-21.351-10.35-41.674-22.014-60.391-34.658-8.403-5.699-13.312-11.295-14.196-16.186-.097-.536-.279-1.581-.048-3.121 4.219 1.368 8.669 2.089 13.232 2.089 11.425 0 22.167-4.451 30.248-12.532 5.971-5.972 10.009-13.611 11.665-21.8 8.188-1.656 15.828-5.694 21.799-11.666 2.648-2.648 4.898-5.591 6.739-8.746 7.402 5.641 16.389 8.703 25.851 8.703h.024c11.417-.006 22.146-4.459 30.184-12.517 6.074-6.048 10.088-13.58 11.723-21.8 8.219-1.633 15.746-5.644 21.777-11.701 8.079-8.062 12.532-18.789 12.539-30.207.005-9.471-3.057-18.468-8.703-25.877 3.155-1.841 6.098-4.092 8.746-6.74 5.971-5.971 10.009-13.611 11.665-21.8 8.188-1.656 15.828-5.694 21.799-11.666 11.742-11.742 15.205-28.665 10.414-43.476 1.556-.238 2.611-.054 3.15.043 4.884.886 10.469 5.792 16.151 14.19 50.795 75.021 82.021 170.227 77.34 234.451-2.993 1.526-5.761 3.521-8.202 5.962l-9.968 9.969c-4.666-28.195-17.897-57.631-40.097-89.339-3.168-4.524-9.404-5.624-13.927-2.457-4.524 3.168-5.624 9.403-2.457 13.927 24.535 35.043 37.086 66.515 38.296 96.053l-7.2 7.2c-38.82-1.563-80.553-22.495-130.885-65.573-4.197-3.593-10.509-3.101-14.1 1.095s-3.101 10.509 1.095 14.1c46.795 40.051 87.343 62.257 125.697 68.571l-10.041 10.041c-.004.004-.008.007-.011.011-2.432 2.44-4.39 5.176-5.885 8.089-25.831 1.881-57.217-1.987-91.274-11.304-5.332-1.459-10.827 1.68-12.285 7.007s1.68 10.827 7.007 12.284c30.171 8.254 58.602 12.478 83.51 12.478 3.374 0 6.675-.088 9.915-.243 1.071 6.444 4.077 12.624 9.035 17.582 6.322 6.302 14.624 9.452 22.93 9.452 2.329 0 4.656-.257 6.942-.753l35.221 59.578c1.905 3.226 7.703 13.04 18.535 14.411.822.104 1.643.156 2.465.156 6.406 0 12.806-3.157 19.059-9.41l77.845-77.848c7.059-7.052 10.172-14.294 9.258-21.52zm-451.521-293.07c.568-.568 1.241-1.16 2.119-1.862 3.744-2.997 4.834-8.229 2.597-12.472-5.714-10.837-1.592-20.856 4.17-26.618s15.778-9.882 26.616-4.169c4.242 2.237 9.475 1.147 12.472-2.597.701-.876 1.294-1.55 1.864-2.121 4.304-4.304 10.021-6.673 16.102-6.673h.013c6.071.003 11.775 2.371 16.067 6.673 1.296 1.296 2.414 2.723 3.353 4.264-4.782 7.013-7.362 15.289-7.367 23.967-.002 4.313.632 8.528 1.854 12.541-9.689.846-19.021 5.106-26.502 12.588-7.482 7.482-11.742 16.814-12.588 26.504-4.005-1.22-8.211-1.854-12.516-1.854-.008 0-.017 0-.025 0-8.68.005-16.957 2.586-23.967 7.366-1.542-.94-2.971-2.059-4.271-3.359-4.295-4.285-6.662-9.989-6.666-16.06-.003-6.086 2.367-11.809 6.675-16.118zm50.914 133.199c-2.732-.047-5.37.995-7.303 2.927-1.932 1.932-2.989 4.571-2.926 7.303.146 6.265-2.215 12.157-6.647 16.589-4.303 4.303-10.023 6.673-16.105 6.673s-11.802-2.37-16.105-6.674c-2.786-2.786-4.812-6.275-5.858-10.091-1.434-5.229-6.773-8.364-12.039-7.065-7.853 1.937-15.923-.298-21.598-5.992-4.307-4.307-6.677-10.03-6.673-16.116.003-6.071 2.371-11.775 6.673-16.068.732-.732 1.39-1.324 2.013-1.808 3.829-2.979 4.968-8.275 2.702-12.564-5.724-10.835-1.61-20.849 4.148-26.607s15.772-9.871 26.604-4.148c4.289 2.267 9.586 1.127 12.564-2.702.484-.623 1.075-1.281 1.815-2.021 4.285-4.294 9.988-6.662 16.059-6.665h.014c3.869 0 7.587.967 10.891 2.774-4.691 6.985-7.211 15.198-7.206 23.798.006 11.417 4.459 22.146 12.531 30.199 7.803 7.803 17.974 12.143 28.606 12.516-1.095 3.389-2.981 6.502-5.573 9.093-4.43 4.433-10.313 6.792-16.587 6.649zm112.88-52.7c-4.4 4.42-10.32 6.765-16.605 6.66-2.711-.057-5.346 1.003-7.27 2.927s-2.981 4.549-2.927 7.27c.125 6.308-2.24 12.206-6.683 16.63-4.285 4.295-9.989 6.662-16.06 6.666-.004 0-.008 0-.013 0-6.08 0-11.798-2.37-16.102-6.674-2.814-2.814-4.834-6.292-5.841-10.058-1.193-4.464-5.229-7.42-9.654-7.42-.799 0-1.61.097-2.42.298-7.827 1.946-15.906-.295-21.616-6.005-4.295-4.285-6.662-9.989-6.666-16.06-.003-6.085 2.367-11.809 6.673-16.115.57-.571 1.244-1.163 2.121-1.864 3.744-2.997 4.834-8.229 2.597-12.472-5.714-10.837-1.592-20.855 4.17-26.618 5.762-5.762 15.778-9.883 26.615-4.169 4.243 2.236 9.477 1.146 12.473-2.599.699-.874 1.292-1.548 1.863-2.12 4.304-4.304 10.021-6.673 16.102-6.673h.013c6.071.003 11.775 2.371 16.068 6.673 5.702 5.703 7.944 13.781 5.997 21.609-1.316 5.293 1.852 10.665 7.121 12.074 3.766 1.007 7.244 3.027 10.058 5.841 4.307 4.307 6.677 10.03 6.673 16.116-.002 6.07-2.369 11.774-6.687 16.083zm46.054-96.297c-4.432 4.432-10.32 6.777-16.587 6.647-2.723-.071-5.371.993-7.303 2.926-1.932 1.932-2.99 4.571-2.926 7.303.145 6.266-2.216 12.157-6.648 16.589-2.591 2.591-5.703 4.477-9.092 5.572-.373-10.631-4.711-20.802-12.508-28.599-8.062-8.08-18.79-12.533-30.207-12.54-.008 0-.016 0-.024 0-8.591 0-16.794 2.519-23.772 7.206-1.808-3.308-2.776-7.031-2.774-10.904.003-6.071 2.371-11.775 6.673-16.068.733-.733 1.391-1.325 2.012-1.808 3.829-2.979 4.968-8.275 2.702-12.564-5.724-10.835-1.61-20.849 4.149-26.607 5.757-5.758 15.771-9.873 26.605-4.148 4.291 2.268 9.59 1.125 12.568-2.706.479-.617 1.07-1.274 1.812-2.017 4.285-4.295 9.989-6.662 16.06-6.666h.013c6.08 0 11.798 2.37 16.113 6.686 5.682 5.663 7.918 13.733 5.981 21.587-1.299 5.265 1.835 10.605 7.064 12.039 3.815 1.046 7.305 3.072 10.09 5.858 4.304 4.303 6.674 10.023 6.674 16.105-.001 6.086-2.372 11.806-6.675 16.109zm63.553 320.65c-4.844-4.844-4.841-12.742.003-17.612l63.582-63.583c2.341-2.341 5.47-3.63 8.814-3.63h.01c3.333.003 6.449 1.288 8.794 3.641 2.331 2.323 3.616 5.438 3.618 8.772.003 3.348-1.286 6.482-3.63 8.826l-63.574 63.575c-4.859 4.844-12.768 4.845-17.617.011zm154.723-4.4-77.845 77.847c-2.831 2.832-4.441 3.415-4.862 3.525-.377-.213-1.742-1.171-3.835-4.715l-35.126-59.419 61.053-61.054 59.429 35.119c3.542 2.092 4.499 3.456 4.712 3.833-.111.421-.694 2.032-3.526 4.864z"/><path d="m301.044 224.43c1.519 0 3.063-.347 4.515-1.079 4.931-2.487 6.898-8.529 4.412-13.46-2.487-4.932-8.501-6.916-13.431-4.426-4.932 2.486-6.913 8.5-4.426 13.431l.028.057c1.755 3.481 5.258 5.477 8.902 5.477z"/><path d="m173.92 372.588c-3.938 3.872-3.993 10.203-.121 14.142l.028.029c1.954 1.988 4.531 2.982 7.11 2.982 2.532 0 5.066-.958 7.017-2.876 3.938-3.872 3.979-10.217.107-14.156s-10.204-3.993-14.141-.121z"/></g></svg>