<svg id="Layer_1" enable-background="new 0 0 512 512" height="512" viewBox="0 0 512 512" width="512" xmlns="http://www.w3.org/2000/svg"><path d="m511.431 300.511v-188.566c-6.176-148.242-219.125-148.197-225.278.001 0-.001 0 84.821 0 84.821-36.258-10.633-79.067.05-105.586 24.83-3.024-2.223-6.157-4.296-9.384-6.208 5.717-5.97 10.532-12.859 14.18-20.483 15.448 3.685 31.008-8.561 30.804-24.512v-10.302c42.512-97.039-56.287-193.962-152.552-148.53-8.722 4.239-2.162 17.734 6.558 13.49 72.746-34.963 153.85 27.077 139.345 106.151-2.968-3.222-6.766-5.668-11.051-6.996 4.001-50.809-33.668-94.437-85.596-94.685-51.926.25-89.598 43.877-85.595 94.685-3.945 1.223-7.477 3.393-10.329 6.244-1.083-5.992-1.608-12.112-1.568-18.328 0-24.616 9.324-48.082 26.255-66.076 6.645-7.062-4.279-17.341-10.925-10.279-19.56 20.786-30.332 47.903-30.332 76.307-.1 15.716 2.958 30.953 9.088 45.288.035.082.072.163.109.244v12.789c-.239 16.274 16.028 28.621 31.633 24.31 3.642 7.656 8.47 14.578 14.211 20.579-33.77 19.954-55.418 57.279-55.418 96.587 0 9.697 15 9.697 15 0 0-25.246 10.024-49.154 27.021-66.969l38.603 26.409c3.45 2.093 6.742 1.677 9.877-1.249l22.831-26.07 22.83 26.07c3.135 2.926 6.427 3.342 9.877 1.249l3.265-2.233c-3.699 11.034-5.703 22.827-5.703 35.073l-.358 56.452c-32.801 26.042-27.37 78.866 9.657 97.875-6.537 14.3-10.108 30.021-10.108 46.221 0 9.697 15 9.697 15 0 0-25.246 10.024-49.154 27.021-66.969l38.603 26.409c3.45 2.093 6.742 1.677 9.877-1.249l22.831-26.07 22.831 26.07c3.135 2.926 6.427 3.342 9.877 1.249l38.567-26.384c17.155 17.887 26.811 42.157 26.811 66.943 0 9.697 15 9.697 15 0 0-16.176-3.481-32.019-10.159-46.555 6.884-3.732 12.992-8.822 17.94-14.995 6.065-7.567-5.641-16.948-11.704-9.381-3.697 4.613-8.26 8.414-13.4 11.197-9.51-15.001-22.569-27.652-37.84-36.71 5.671-5.96 10.457-12.855 14.112-20.522 12.283 2.769 25.276-4.332 29.425-16.307 10.871 8.287 17.322 21.242 17.322 34.918 0 9.697 15 9.697 15 0 0-17.618-7.972-34.341-21.506-45.483v-56.663c0-12.349-2.035-24.236-5.788-35.348l3.597 2.461c3.45 2.093 6.742 1.677 9.877-1.249l22.831-26.07 22.831 26.07c3.135 2.926 6.427 3.342 9.877 1.249l38.546-26.369c17.11 17.866 26.829 42.244 26.829 66.93 0 9.697 15 9.697 15 0 0-3.824-.192-7.615-.569-11.361zm-112.639-285.31c53.838 0 97.639 43.399 97.639 96.745v20.823c-3.123-3.996-7.426-7.026-12.381-8.562v-9.752c-4.706-112.699-166.527-112.612-171.191 0v9.753c-4.606 1.428-8.65 4.148-11.705 7.734v-19.996c-.001-53.346 43.8-96.745 97.638-96.745zm.123 209.909c-25.763 0-49.117-15.306-59.325-38.474 3.722-4.383 5.969-10.054 5.969-16.241-.038-1.026.108-24.581-.12-24.642 9.944-.399 22.505-2.193 35.113-7.432 15.612-6.487 27.726-16.729 36.166-30.537 6.521 10.745 17.905 24.851 35.778 32.915-.745 2.373-1.147 4.897-1.147 7.513v22.183c0 4.95 1.439 9.57 3.921 13.465-10.028 8.297-22.166 9.479-34.591 9.05-7.986-22.054-40.58-16.95-41.044 6.817.378 22.957 31.416 28.898 40.516 8.183 8.324.24 17.014.181 25.06-2.141-11.945 12.085-28.538 19.341-46.296 19.341zm70.135-100.903c-2.804.869-5.399 2.217-7.689 3.947-26.949-10.552-37.518-39.525-37.62-39.813-2.261-6.473-11.669-6.596-14.095-.179-14.948 39.538-54.455 43.015-71.096 42.657-2.913-3.033-6.577-5.338-10.69-6.613v-9.752c0-38.561 31.669-69.933 70.596-69.933s70.596 31.372 70.596 69.933v9.753zm-148.767 13.88c5.564.472 10.276 4.093 10.276 10.125v22.183c0 13.247-20.401 13.247-20.401 0v-22.183c0-5.583 4.542-10.125 10.125-10.125zm80.446 67.617c-8.054-.253-8.052-11.706 0-11.957 8.054.253 8.052 11.706 0 11.957zm65.62-35.309v-22.183c0-13.129 20.401-13.22 20.401 0v22.183c0 13.247-20.401 13.247-20.401 0zm-165.196 16.271c4.612 5.414 11.477 8.854 19.13 8.854h.151c2.195 0 4.324-.283 6.355-.814 3.641 7.662 8.461 14.586 14.192 20.587-3.286 1.94-6.476 4.047-9.551 6.308-8.912-8.017-19.122-14.638-30.276-19.512v-15.423zm-187.821 38.444c-25.687 0-49.118-15.331-59.325-38.475 3.721-4.383 5.969-10.054 5.969-16.24 0-8.135.671-16.537-.12-24.642 9.944-.399 22.505-2.193 35.113-7.432 15.612-6.487 27.726-16.729 36.166-30.537 6.521 10.745 17.905 24.851 35.778 32.915-.745 2.373-1.147 4.897-1.147 7.513v22.183c0 4.95 1.439 9.57 3.921 13.464-10.029 8.294-22.166 9.48-34.59 9.051-7.986-22.054-40.58-16.95-41.044 6.817.378 22.957 31.416 28.898 40.516 8.183 8.326.24 17.017.18 25.063-2.145-11.946 12.088-28.54 19.345-46.3 19.345zm1.814-19.406c-8.054-.253-8.052-11.706 0-11.957 8.054.253 8.052 11.706 0 11.957zm86.021-35.309c0 13.247-20.401 13.247-20.401 0v-22.183c0-13.13 20.401-13.219 20.401 0zm-88.296-125.873c38.927 0 70.596 31.372 70.596 69.933v9.752c-2.804.869-5.399 2.217-7.689 3.947-26.949-10.552-37.518-39.525-37.62-39.813-2.262-6.475-11.669-6.596-14.095-.179-14.948 39.538-54.457 43.015-71.096 42.657-2.913-3.032-6.577-5.338-10.69-6.613v-9.752c-.002-38.56 31.667-69.932 70.594-69.932zm-78.171 135.998c-5.583 0-10.125-4.542-10.125-10.125v-22.183c0-13.247 20.401-13.247 20.401 0v22.183c0 6.032-4.712 9.653-10.276 10.125zm48.902 74.655-30.072-20.573c4.381-3.338 9.073-6.329 14.043-8.919 9.079 6.321 19.467 10.787 30.516 12.948zm59.46 0-14.48-16.535c11.035-2.147 21.39-6.58 30.439-12.864 3.798 1.989 7.467 4.228 10.977 6.697-2.439 2.873-4.734 5.869-6.876 8.977zm16.966 190.106c-28.232-14.38-31.836-54.782-6.285-73.852 3.409 9.837 12.767 16.919 23.749 16.919h.151c2.195 0 4.325-.283 6.356-.815 3.642 7.655 8.47 14.577 14.211 20.578-6.802 4.019-13.101 8.709-18.826 13.957-.382.291-.74.622-1.067.991-7.039 6.623-13.181 14.101-18.289 22.222zm96.096-27.343c-25.687 0-49.118-15.331-59.325-38.474 3.721-4.383 5.969-10.054 5.969-16.24-.038-1.026.108-24.581-.12-24.641 9.912-.397 22.397-2.178 34.946-7.363 15.693-6.483 27.863-16.747 36.334-30.606 6.521 10.745 17.905 24.851 35.777 32.915-.745 2.373-1.147 4.897-1.147 7.513v22.183c0 4.951 1.44 9.572 3.923 13.467-7.004 5.807-15.888 9.047-25.175 9.047h-9.417c-7.986-22.054-40.58-16.95-41.044 6.817.377 22.956 31.416 28.897 40.516 8.183 7.975.054 17.606.317 25.169-2.159-11.93 12.171-28.5 19.358-46.406 19.358zm7.587-23.471c-2.24 6.296-11.757 4.872-11.867-1.913 0-3.297 2.733-5.978 6.094-5.978 5.685 0 5.168 4.222 5.773 7.891zm62.547-77.432c-2.803.869-5.398 2.216-7.688 3.946-26.95-10.55-37.519-39.523-37.622-39.812-2.265-6.483-11.669-6.598-14.095-.179-14.932 39.495-54.33 43.033-71.096 42.657-2.913-3.032-6.577-5.337-10.69-6.612v-9.752c0-38.561 31.669-69.933 70.596-69.933s70.596 31.372 70.596 69.933v9.752zm-148.766 13.88c5.564.472 10.276 4.093 10.276 10.125v22.183c0 13.247-20.401 13.247-20.401 0v-22.183c-.001-5.583 4.542-10.125 10.125-10.125zm48.901 117.088-30.071-20.573c4.381-3.338 9.073-6.329 14.043-8.92 9.079 6.322 19.467 10.787 30.516 12.949zm59.461 0-14.458-16.51c11.097-2.125 21.471-6.536 30.525-12.835 4.94 2.588 9.591 5.544 13.926 8.826zm58.105-84.78c0 13.247-20.401 13.247-20.401 0v-22.183c0-13.134 20.401-13.216 20.401 0zm-2.701-46.188v-9.752c-4.706-112.699-166.527-112.612-171.191 0v9.752c-4.551 1.411-8.553 4.083-11.595 7.606l.13-20.44c5.354-128.058 189.492-127.959 194.797 0v21.093c-3.102-3.846-7.312-6.762-12.141-8.259zm27.927-61.86-20.545-14.056c-2.075-2.989-4.292-5.874-6.643-8.644 3.557-2.502 7.279-4.77 11.132-6.778 9.075 6.323 19.467 10.784 30.538 12.94zm59.461 0-14.48-16.535c11.035-2.147 21.39-6.581 30.44-12.864 4.975 2.602 9.658 5.579 14.022 8.888zm48.405-24.544c-5.245-5.803-13.65-11.334-20.278-15.247 5.715-5.969 10.527-12.856 14.174-20.477 9.435 2.262 19.913-1.661 25.484-9.068v69.013c-5.27-8.887-12.37-16.465-19.38-24.221z"/></svg>